<svg xmlns="http://www.w3.org/2000/svg" version="1.1" xmlns:xlink="http://www.w3.org/1999/xlink" xmlns:svgjs="http://svgjs.dev/svgjs" width="1000" height="275" viewBox="0 0 1000 275"><g transform="matrix(1,0,0,1,-0.6060606060606233,-0.1764598475474486)"><svg viewBox="0 0 396 109" data-background-color="#77d4fc" preserveAspectRatio="xMidYMid meet" height="275" width="1000" xmlns="http://www.w3.org/2000/svg" xmlns:xlink="http://www.w3.org/1999/xlink"><g id="tight-bounds" transform="matrix(1,0,0,1,0.2400000000000091,0.06994226684608407)"><svg viewBox="0 0 395.52 108.86011546630785" height="108.86011546630785" width="395.52"><g><svg viewBox="0 0 589.9014273510002 162.36027886116932" height="108.86011546630785" width="395.52"><g transform="matrix(1,0,0,1,0,47.2703513858121)"><svg viewBox="0 0 395.52 67.81957608954512" height="67.81957608954512" width="395.52"><g id="textblocktransform"><svg viewBox="0 0 395.52 67.81957608954512" height="67.81957608954512" width="395.52" id="textblock"><g><svg viewBox="0 0 395.52 67.81957608954512" height="67.81957608954512" width="395.52"><g transform="matrix(1,0,0,1,0,0)"><svg width="395.52" viewBox="1.25 -35.5 209.93 36" height="67.81957608954512" data-palette-color="#000000"><g class="wordmark-text-0" data-fill-palette-color="primary" id="text-0"><path d="M15.75 0L13.15 0Q12.65 0 12.33-0.33 12-0.65 12-1.15L12-1.15 12-30.55 2.4-30.55Q1.9-30.55 1.58-30.88 1.25-31.2 1.25-31.7L1.25-31.7 1.25-33.8Q1.25-34.35 1.58-34.68 1.9-35 2.4-35L2.4-35 26.5-35Q27.05-35 27.38-34.68 27.7-34.35 27.7-33.8L27.7-33.8 27.7-31.7Q27.7-31.2 27.38-30.88 27.05-30.55 26.5-30.55L26.5-30.55 16.95-30.55 16.95-1.15Q16.95-0.65 16.63-0.33 16.3 0 15.75 0L15.75 0ZM37.1 0L34.45 0Q33.9 0 33.6-0.33 33.3-0.65 33.3-1.15L33.3-1.15 33.3-33.85Q33.3-34.35 33.6-34.68 33.9-35 34.45-35L34.45-35 37.1-35Q37.65-35 37.95-34.68 38.25-34.35 38.25-33.85L38.25-33.85 38.25-1.15Q38.25-0.65 37.95-0.33 37.65 0 37.1 0L37.1 0ZM50.6 0L48.1 0Q47.55 0 47.25-0.33 46.95-0.65 46.95-1.15L46.95-1.15 46.95-33.8Q46.95-34.35 47.25-34.68 47.55-35 48.1-35L48.1-35 50.6-35Q51.15-35 51.47-34.68 51.8-34.35 51.8-33.8L51.8-33.8 51.8-21.4 65.15-34.2Q65.34-34.4 65.82-34.7 66.3-35 67.09-35L67.09-35 69.8-35Q70.2-35 70.5-34.7 70.8-34.4 70.8-34L70.8-34Q70.8-33.6 70.59-33.35L70.59-33.35 55.15-18.25 71.59-1.7Q71.84-1.4 71.84-1L71.84-1Q71.84-0.6 71.55-0.3 71.25 0 70.84 0L70.84 0 68.05 0Q67.2 0 66.75-0.33 66.3-0.65 66.09-0.85L66.09-0.85 51.8-14.9 51.8-1.15Q51.8-0.65 51.47-0.33 51.15 0 50.6 0L50.6 0ZM99.19 0L78.14 0Q77.59 0 77.29-0.33 76.99-0.65 76.99-1.15L76.99-1.15 76.99-33.8Q76.99-34.35 77.29-34.68 77.59-35 78.14-35L78.14-35 98.79-35Q99.34-35 99.64-34.68 99.94-34.35 99.94-33.8L99.94-33.8 99.94-31.9Q99.94-31.35 99.64-31.05 99.34-30.75 98.79-30.75L98.79-30.75 81.79-30.75 81.79-19.8 97.69-19.8Q98.24-19.8 98.54-19.48 98.84-19.15 98.84-18.6L98.84-18.6 98.84-16.75Q98.84-16.25 98.54-15.93 98.24-15.6 97.69-15.6L97.69-15.6 81.79-15.6 81.79-4.25 99.19-4.25Q99.74-4.25 100.04-3.95 100.34-3.65 100.34-3.1L100.34-3.1 100.34-1.15Q100.34-0.65 100.04-0.33 99.74 0 99.19 0L99.19 0ZM118.69 0L116.09 0Q115.59 0 115.27-0.33 114.94-0.65 114.94-1.15L114.94-1.15 114.94-30.55 105.34-30.55Q104.84-30.55 104.52-30.88 104.19-31.2 104.19-31.7L104.19-31.7 104.19-33.8Q104.19-34.35 104.52-34.68 104.84-35 105.34-35L105.34-35 129.44-35Q129.99-35 130.31-34.68 130.64-34.35 130.64-33.8L130.64-33.8 130.64-31.7Q130.64-31.2 130.31-30.88 129.99-30.55 129.44-30.55L129.44-30.55 119.89-30.55 119.89-1.15Q119.89-0.65 119.57-0.33 119.24 0 118.69 0L118.69 0ZM140.04 0L137.39 0Q136.84 0 136.54-0.33 136.24-0.65 136.24-1.15L136.24-1.15 136.24-33.85Q136.24-34.35 136.54-34.68 136.84-35 137.39-35L137.39-35 140.04-35Q140.59-35 140.89-34.68 141.19-34.35 141.19-33.85L141.19-33.85 141.19-1.15Q141.19-0.65 140.89-0.33 140.59 0 140.04 0L140.04 0ZM153.44 0L151.04 0Q150.49 0 150.19-0.33 149.89-0.65 149.89-1.15L149.89-1.15 149.89-33.8Q149.89-34.35 150.19-34.68 150.49-35 151.04-35L151.04-35 153.34-35Q153.94-35 154.24-34.73 154.54-34.45 154.59-34.3L154.59-34.3 171.19-8.8 171.19-33.8Q171.19-34.35 171.49-34.68 171.79-35 172.34-35L172.34-35 174.74-35Q175.29-35 175.61-34.68 175.94-34.35 175.94-33.8L175.94-33.8 175.94-1.2Q175.94-0.7 175.61-0.35 175.29 0 174.79 0L174.79 0 172.39 0Q171.84 0 171.56-0.3 171.29-0.6 171.19-0.7L171.19-0.7 154.64-25.95 154.64-1.15Q154.64-0.65 154.31-0.33 153.99 0 153.44 0L153.44 0ZM197.23 0.5L197.23 0.5Q192.93 0.5 189.88-0.98 186.83-2.45 185.18-5.53 183.53-8.6 183.33-13.25L183.33-13.25Q183.28-15.45 183.28-17.48 183.28-19.5 183.33-21.7L183.33-21.7Q183.53-26.3 185.26-29.38 186.98-32.45 190.06-33.98 193.13-35.5 197.23-35.5L197.23-35.5Q201.28-35.5 204.36-33.98 207.43-32.45 209.18-29.38 210.93-26.3 211.08-21.7L211.08-21.7Q211.18-19.5 211.18-17.48 211.18-15.45 211.08-13.25L211.08-13.25Q210.93-8.6 209.26-5.53 207.58-2.45 204.53-0.98 201.48 0.5 197.23 0.5ZM197.23-3.75L197.23-3.75Q201.03-3.75 203.46-6.05 205.88-8.35 206.08-13.5L206.08-13.5Q206.18-15.75 206.18-17.53 206.18-19.3 206.08-21.5L206.08-21.5Q205.98-24.95 204.81-27.1 203.63-29.25 201.68-30.25 199.73-31.25 197.23-31.25L197.23-31.25Q194.73-31.25 192.78-30.25 190.83-29.25 189.66-27.1 188.48-24.95 188.33-21.5L188.33-21.5Q188.28-19.3 188.28-17.53 188.28-15.75 188.33-13.5L188.33-13.5Q188.53-8.35 190.98-6.05 193.43-3.75 197.23-3.75Z" fill="currentColor" data-fill-palette-color="primary"></path></g></svg></g></svg></g></svg></g></svg></g><g transform="matrix(1,0,0,1,427.5411484898309,0)"><svg viewBox="0 0 162.36027886116932 162.36027886116932" height="162.36027886116932" width="162.36027886116932"><g><svg></svg></g><g id="icon-0"><svg viewBox="0 0 162.36027886116932 162.36027886116932" height="162.36027886116932" width="162.36027886116932"><g><path d="M0 81.18c0-44.835 36.346-81.18 81.18-81.18 44.835 0 81.18 36.346 81.18 81.18 0 44.835-36.346 81.18-81.18 81.18-44.835 0-81.18-36.346-81.18-81.18zM81.18 156.244c41.457 0 75.064-33.607 75.064-75.064 0-41.457-33.607-75.064-75.064-75.064-41.457 0-75.064 33.607-75.064 75.064 0 41.457 33.607 75.064 75.064 75.064z" data-fill-palette-color="accent" fill="currentColor" stroke="transparent"></path></g><g transform="matrix(1,0,0,1,36.743758857642625,36.743758857642625)"><svg viewBox="0 0 88.87276114588407 88.87276114588407" height="88.87276114588407" width="88.87276114588407"><g><svg xmlns="http://www.w3.org/2000/svg" xmlns:xlink="http://www.w3.org/1999/xlink" version="1.1" baseProfile="tiny" x="0" y="0" viewBox="0 0 100 100" xml:space="preserve" height="88.87276114588407" width="88.87276114588407" class="icon-z$-0" data-fill-palette-color="accent" id="z$-0"><path d="M100 52.993v-6.004H53.466v-3.947h45.905c0 0-3.666-37.641-41.991-42.47v34.642h31.661c0 0-5.333-14.49-13.331-17.821v11.992H63.546V8.566c0 0 22.161 3.165 29.327 29.313l-39.407-0.232V0h-6.005v37.611L8.058 37.379c0 0 5.331-23.317 29.826-29.812l-0.333 21.818H25.554V17.061c0 0-9.998 4.996-13.997 18.154H43.05V0.739c0 0-37.326 5.496-42.491 42.303h46.902v3.947H0v6.004h47.461v4.537H0.642c5.166 36.806 42.492 42.302 42.492 42.302V65.357H11.64c3.999 13.158 13.997 18.154 13.997 18.154V71.187h11.998l0.333 21.818C13.473 86.51 8.141 63.192 8.141 63.192l39.32-0.231v36.988h6.005V62.925l39.49-0.231c-7.165 26.147-29.327 29.313-29.327 29.313V71.187h12.165v11.991c7.998-3.33 13.33-17.819 13.33-17.819H57.463V100c38.326-4.829 41.992-42.47 41.992-42.47H53.466v-4.537H100z" fill="currentColor" data-fill-palette-color="accent"></path></svg></g></svg></g></svg></g></svg></g></svg></g><defs></defs></svg><rect width="395.52" height="108.86011546630785" fill="none" stroke="none" visibility="hidden"></rect></g></svg></g></svg>